<?xml version="1.0" standalone="no"?>
<!DOCTYPE svg PUBLIC "-//W3C//DTD SVG 20010904//EN"
 "http://www.w3.org/TR/2001/REC-SVG-20010904/DTD/svg10.dtd">
<svg version="1.0" xmlns="http://www.w3.org/2000/svg"
 width="384.000000pt" height="384.000000pt" viewBox="0 0 384.000000 384.000000"
 preserveAspectRatio="xMidYMid meet">
<metadata>
Created by potrace 1.11, written by Peter Selinger 2001-2013
</metadata>
<g transform="translate(0.000000,384.000000) scale(0.100000,-0.100000)"
fill="#000000" stroke="none">
<path d="M320 2615 l0 -905 725 0 725 0 0 905 0 905 -725 0 -725 0 0 -905z"/>
<path d="M2070 2975 l0 -545 725 0 725 0 0 545 0 545 -725 0 -725 0 0 -545z"/>
<path d="M2070 1225 l0 -905 725 0 725 0 0 905 0 905 -725 0 -725 0 0 -905z"/>
<path d="M320 865 l0 -545 725 0 725 0 0 545 0 545 -725 0 -725 0 0 -545z"/>
</g>
</svg>
